<svg width="69" height="21" viewBox="0 0 69 21" fill="none" xmlns="http://www.w3.org/2000/svg">
<g clip-path="url(#clip0_48498_2136)">
<path fill-rule="evenodd" clip-rule="evenodd" d="M4.13333 6.76706C4.13333 4.63156 5.8645 2.90039 8 2.90039C10.1355 2.90039 11.8667 4.63156 11.8667 6.76706V9.96706C11.8667 12.1026 10.1355 13.8337 8 13.8337C5.8645 13.8337 4.13333 12.1026 4.13333 9.96706V6.76706ZM8 4.23372C6.60088 4.23372 5.46667 5.36794 5.46667 6.76706V9.96706C5.46667 11.3662 6.60088 12.5004 8 12.5004C9.39912 12.5004 10.5333 11.3662 10.5333 9.96706V6.76706C10.5333 5.36794 9.39912 4.23372 8 4.23372Z" fill="#424551"/>
<path fill-rule="evenodd" clip-rule="evenodd" d="M2.66667 8.23372C3.03486 8.23372 3.33333 8.5322 3.33333 8.90039V9.96706C3.33333 12.5444 5.42267 14.6337 8 14.6337C10.5773 14.6337 12.6667 12.5444 12.6667 9.96706V8.90039C12.6667 8.5322 12.9651 8.23372 13.3333 8.23372C13.7015 8.23372 14 8.5322 14 8.90039V9.96706C14 13.2808 11.3137 15.9671 8 15.9671C4.68629 15.9671 2 13.2808 2 9.96706V8.90039C2 8.5322 2.29848 8.23372 2.66667 8.23372Z" fill="#424551"/>
<path fill-rule="evenodd" clip-rule="evenodd" d="M8 15.1671C8.36819 15.1671 8.66667 15.4655 8.66667 15.8337V16.7671H10.1333C10.5015 16.7671 10.8 17.0655 10.8 17.4337C10.8 17.8019 10.5015 18.1004 10.1333 18.1004H5.86667C5.49848 18.1004 5.2 17.8019 5.2 17.4337C5.2 17.0655 5.49848 16.7671 5.86667 16.7671H7.33333V15.8337C7.33333 15.4655 7.63181 15.1671 8 15.1671Z" fill="#424551"/>
</g>
<path d="M22.709 12.248V16H21.358V5.969H24.319C24.9537 5.969 25.5043 6.04367 25.971 6.193C26.4423 6.33767 26.832 6.54533 27.14 6.816C27.448 7.08667 27.6767 7.41333 27.826 7.796C27.98 8.17867 28.057 8.60567 28.057 9.077C28.057 9.54367 27.9753 9.97067 27.812 10.358C27.6487 10.7453 27.4083 11.079 27.091 11.359C26.7783 11.639 26.3887 11.8583 25.922 12.017C25.4553 12.171 24.921 12.248 24.319 12.248H22.709ZM22.709 11.17H24.319C24.7063 11.17 25.047 11.1187 25.341 11.016C25.6397 10.9133 25.8893 10.771 26.09 10.589C26.2907 10.4023 26.4423 10.1807 26.545 9.924C26.6477 9.66733 26.699 9.385 26.699 9.077C26.699 8.43767 26.5007 7.93833 26.104 7.579C25.712 7.21967 25.117 7.04 24.319 7.04H22.709V11.17ZM32.2455 8.797C32.7635 8.797 33.2302 8.88333 33.6455 9.056C34.0655 9.22867 34.4202 9.47367 34.7095 9.791C35.0035 10.1083 35.2275 10.4933 35.3815 10.946C35.5402 11.394 35.6195 11.8957 35.6195 12.451C35.6195 13.011 35.5402 13.515 35.3815 13.963C35.2275 14.411 35.0035 14.7937 34.7095 15.111C34.4202 15.4283 34.0655 15.6733 33.6455 15.846C33.2302 16.014 32.7635 16.098 32.2455 16.098C31.7275 16.098 31.2585 16.014 30.8385 15.846C30.4232 15.6733 30.0685 15.4283 29.7745 15.111C29.4805 14.7937 29.2542 14.411 29.0955 13.963C28.9368 13.515 28.8575 13.011 28.8575 12.451C28.8575 11.8957 28.9368 11.394 29.0955 10.946C29.2542 10.4933 29.4805 10.1083 29.7745 9.791C30.0685 9.47367 30.4232 9.22867 30.8385 9.056C31.2585 8.88333 31.7275 8.797 32.2455 8.797ZM32.2455 15.125C32.9455 15.125 33.4682 14.8917 33.8135 14.425C34.1588 13.9537 34.3315 13.298 34.3315 12.458C34.3315 11.6133 34.1588 10.9553 33.8135 10.484C33.4682 10.0127 32.9455 9.777 32.2455 9.777C31.8908 9.777 31.5828 9.83767 31.3215 9.959C31.0602 10.0803 30.8408 10.2553 30.6635 10.484C30.4908 10.7127 30.3602 10.995 30.2715 11.331C30.1875 11.6623 30.1455 12.038 30.1455 12.458C30.1455 12.878 30.1875 13.2537 30.2715 13.585C30.3602 13.9163 30.4908 14.1963 30.6635 14.425C30.8408 14.649 31.0602 14.8217 31.3215 14.943C31.5828 15.0643 31.8908 15.125 32.2455 15.125ZM42.1458 16C41.9685 16 41.8565 15.9137 41.8098 15.741L41.6978 14.88C41.3945 15.2487 41.0468 15.545 40.6548 15.769C40.2675 15.9883 39.8218 16.098 39.3178 16.098C38.9118 16.098 38.5431 16.021 38.2118 15.867C37.8805 15.7083 37.5981 15.4773 37.3648 15.174C37.1315 14.8707 36.9518 14.4927 36.8258 14.04C36.6998 13.5873 36.6368 13.067 36.6368 12.479C36.6368 11.9563 36.7068 11.471 36.8468 11.023C36.9868 10.5703 37.1875 10.1783 37.4488 9.847C37.7148 9.51567 38.0368 9.25667 38.4148 9.07C38.7928 8.87867 39.2221 8.783 39.7028 8.783C40.1368 8.783 40.5078 8.85767 40.8158 9.007C41.1238 9.15167 41.3991 9.357 41.6418 9.623V5.689H42.8878V16H42.1458ZM39.7308 15.09C40.1368 15.09 40.4915 14.9967 40.7948 14.81C41.1028 14.6233 41.3851 14.3597 41.6418 14.019V10.589C41.4131 10.281 41.1611 10.0663 40.8858 9.945C40.6151 9.819 40.3141 9.756 39.9828 9.756C39.3201 9.756 38.8115 9.99167 38.4568 10.463C38.1021 10.9343 37.9248 11.6063 37.9248 12.479C37.9248 12.941 37.9645 13.3377 38.0438 13.669C38.1231 13.9957 38.2398 14.2663 38.3938 14.481C38.5478 14.691 38.7368 14.845 38.9608 14.943C39.1848 15.041 39.4415 15.09 39.7308 15.09ZM49.8121 10.169C49.7748 10.2203 49.7375 10.26 49.7001 10.288C49.6628 10.316 49.6091 10.33 49.5391 10.33C49.4691 10.33 49.3921 10.302 49.3081 10.246C49.2288 10.1853 49.1261 10.12 49.0001 10.05C48.8741 9.98 48.7201 9.917 48.5381 9.861C48.3608 9.80033 48.1415 9.77 47.8801 9.77C47.5348 9.77 47.2291 9.833 46.9631 9.959C46.6971 10.0803 46.4731 10.2577 46.2911 10.491C46.1138 10.7243 45.9785 11.0067 45.8851 11.338C45.7965 11.6693 45.7521 12.0403 45.7521 12.451C45.7521 12.8803 45.8011 13.263 45.8991 13.599C45.9971 13.9303 46.1348 14.2103 46.3121 14.439C46.4895 14.663 46.7041 14.8357 46.9561 14.957C47.2128 15.0737 47.4998 15.132 47.8171 15.132C48.1205 15.132 48.3701 15.097 48.5661 15.027C48.7621 14.9523 48.9255 14.8707 49.0561 14.782C49.1868 14.6933 49.2941 14.614 49.3781 14.544C49.4621 14.4693 49.5461 14.432 49.6301 14.432C49.7375 14.432 49.8168 14.4717 49.8681 14.551L50.2181 15.006C49.9101 15.384 49.5251 15.6617 49.0631 15.839C48.6011 16.0117 48.1135 16.098 47.6001 16.098C47.1568 16.098 46.7438 16.0163 46.3611 15.853C45.9831 15.6897 45.6541 15.454 45.3741 15.146C45.0941 14.8333 44.8725 14.4507 44.7091 13.998C44.5505 13.5453 44.4711 13.0297 44.4711 12.451C44.4711 11.9237 44.5435 11.436 44.6881 10.988C44.8375 10.54 45.0521 10.155 45.3321 9.833C45.6168 9.50633 45.9668 9.252 46.3821 9.07C46.7975 8.888 47.2735 8.797 47.8101 8.797C48.3048 8.797 48.7435 8.87867 49.1261 9.042C49.5088 9.20067 49.8471 9.427 50.1411 9.721L49.8121 10.169ZM56.7183 16H56.1653C56.0439 16 55.9459 15.9813 55.8713 15.944C55.7966 15.9067 55.7476 15.8273 55.7243 15.706L55.5843 15.048C55.3976 15.216 55.2156 15.3677 55.0383 15.503C54.8609 15.6337 54.6743 15.7457 54.4783 15.839C54.2823 15.9277 54.0723 15.9953 53.8483 16.042C53.6289 16.0887 53.3839 16.112 53.1133 16.112C52.8379 16.112 52.5789 16.0747 52.3363 16C52.0983 15.9207 51.8906 15.804 51.7133 15.65C51.5359 15.496 51.3936 15.3023 51.2863 15.069C51.1836 14.831 51.1323 14.551 51.1323 14.229C51.1323 13.949 51.2093 13.6807 51.3633 13.424C51.5173 13.1627 51.7646 12.9317 52.1053 12.731C52.4506 12.5303 52.9009 12.367 53.4563 12.241C54.0116 12.1103 54.6906 12.0357 55.4933 12.017V11.464C55.4933 10.9133 55.3743 10.498 55.1363 10.218C54.9029 9.93333 54.5553 9.791 54.0933 9.791C53.7899 9.791 53.5333 9.83067 53.3233 9.91C53.1179 9.98467 52.9383 10.071 52.7843 10.169C52.6349 10.2623 52.5043 10.3487 52.3923 10.428C52.2849 10.5027 52.1776 10.54 52.0703 10.54C51.9863 10.54 51.9116 10.519 51.8463 10.477C51.7856 10.4303 51.7366 10.3743 51.6993 10.309L51.4753 9.91C51.8673 9.532 52.2896 9.24967 52.7423 9.063C53.1949 8.87633 53.6966 8.783 54.2473 8.783C54.6439 8.783 54.9963 8.84833 55.3043 8.979C55.6123 9.10967 55.8713 9.29167 56.0813 9.525C56.2913 9.75833 56.4499 10.0407 56.5573 10.372C56.6646 10.7033 56.7183 11.0673 56.7183 11.464V16ZM53.4843 15.237C53.7036 15.237 53.9043 15.216 54.0863 15.174C54.2683 15.1273 54.4386 15.0643 54.5973 14.985C54.7606 14.901 54.9146 14.8007 55.0593 14.684C55.2086 14.5673 55.3533 14.4343 55.4933 14.285V12.808C54.9193 12.8267 54.4316 12.8733 54.0303 12.948C53.6289 13.018 53.3023 13.1113 53.0503 13.228C52.7983 13.3447 52.6139 13.4823 52.4973 13.641C52.3853 13.7997 52.3293 13.977 52.3293 14.173C52.3293 14.3597 52.3596 14.5207 52.4203 14.656C52.4809 14.7913 52.5626 14.9033 52.6653 14.992C52.7679 15.076 52.8893 15.139 53.0293 15.181C53.1693 15.2183 53.3209 15.237 53.4843 15.237ZM62.666 10.078C62.61 10.1807 62.5237 10.232 62.407 10.232C62.337 10.232 62.2577 10.2063 62.169 10.155C62.0803 10.1037 61.9707 10.0477 61.84 9.987C61.714 9.92167 61.5623 9.86333 61.385 9.812C61.2077 9.756 60.9977 9.728 60.755 9.728C60.545 9.728 60.356 9.756 60.188 9.812C60.02 9.86333 59.8753 9.93567 59.754 10.029C59.6373 10.1223 59.5463 10.232 59.481 10.358C59.4203 10.4793 59.39 10.6123 59.39 10.757C59.39 10.939 59.4413 11.0907 59.544 11.212C59.6513 11.3333 59.7913 11.4383 59.964 11.527C60.1367 11.6157 60.3327 11.695 60.552 11.765C60.7713 11.8303 60.9953 11.9027 61.224 11.982C61.4573 12.0567 61.6837 12.1407 61.903 12.234C62.1223 12.3273 62.3183 12.444 62.491 12.584C62.6637 12.724 62.8013 12.8967 62.904 13.102C63.0113 13.3027 63.065 13.5453 63.065 13.83C63.065 14.1567 63.0067 14.46 62.89 14.74C62.7733 15.0153 62.6007 15.2557 62.372 15.461C62.1433 15.6617 61.8633 15.8203 61.532 15.937C61.2007 16.0537 60.818 16.112 60.384 16.112C59.8893 16.112 59.4413 16.0327 59.04 15.874C58.6387 15.7107 58.298 15.503 58.018 15.251L58.312 14.775C58.3493 14.7143 58.3937 14.6677 58.445 14.635C58.4963 14.6023 58.564 14.586 58.648 14.586C58.732 14.586 58.8207 14.6187 58.914 14.684C59.0073 14.7493 59.1193 14.8217 59.25 14.901C59.3853 14.9803 59.5463 15.0527 59.733 15.118C59.9243 15.1833 60.1623 15.216 60.447 15.216C60.6897 15.216 60.902 15.1857 61.084 15.125C61.266 15.0597 61.4177 14.9733 61.539 14.866C61.6603 14.7587 61.749 14.635 61.805 14.495C61.8657 14.355 61.896 14.2057 61.896 14.047C61.896 13.851 61.8423 13.69 61.735 13.564C61.6323 13.4333 61.4947 13.3237 61.322 13.235C61.1493 13.1417 60.951 13.0623 60.727 12.997C60.5077 12.927 60.2813 12.8547 60.048 12.78C59.8193 12.7053 59.593 12.6213 59.369 12.528C59.1497 12.43 58.9537 12.3087 58.781 12.164C58.6083 12.0193 58.4683 11.842 58.361 11.632C58.2583 11.4173 58.207 11.1583 58.207 10.855C58.207 10.5843 58.263 10.3253 58.375 10.078C58.487 9.826 58.6503 9.60667 58.865 9.42C59.0797 9.22867 59.3433 9.077 59.656 8.965C59.9687 8.853 60.3257 8.797 60.727 8.797C61.1937 8.797 61.6113 8.87167 61.98 9.021C62.3533 9.16567 62.6753 9.36633 62.946 9.623L62.666 10.078ZM66.8253 16.112C66.2653 16.112 65.8336 15.9557 65.5303 15.643C65.2316 15.3303 65.0823 14.88 65.0823 14.292V9.952H64.2283C64.1536 9.952 64.0906 9.931 64.0393 9.889C63.988 9.84233 63.9623 9.77233 63.9623 9.679V9.182L65.1243 9.035L65.4113 6.844C65.4206 6.774 65.451 6.718 65.5023 6.676C65.5536 6.62933 65.619 6.606 65.6983 6.606H66.3283V9.049H68.3583V9.952H66.3283V14.208C66.3283 14.5067 66.4006 14.7283 66.5453 14.873C66.69 15.0177 66.8766 15.09 67.1053 15.09C67.236 15.09 67.348 15.0737 67.4413 15.041C67.5393 15.0037 67.6233 14.964 67.6933 14.922C67.7633 14.88 67.8216 14.8427 67.8683 14.81C67.9196 14.7727 67.964 14.754 68.0013 14.754C68.0666 14.754 68.125 14.7937 68.1763 14.873L68.5403 15.468C68.3256 15.6687 68.0666 15.8273 67.7633 15.944C67.46 16.056 67.1473 16.112 66.8253 16.112Z" fill="#424551"/>
<defs>
<clipPath id="clip0_48498_2136">
<rect width="16" height="16" fill="white" transform="translate(0 2.5)"/>
</clipPath>
</defs>
</svg>
